C:\GBW_MyPrograms\PredSimResults\Vitruvian_man\IG_v35ms_30.mot
version=1
nRows=13
nColumns=35
inDegrees=yes
endheader
                time	         pelvis_tilt	           pelvis_tx	           pelvis_ty	       hip_flexion_r	        knee_angle_r	       ankle_angle_r	         mtp_angle_r	       hip_flexion_l	        knee_angle_l	       ankle_angle_l	         mtp_angle_l	    lumbar_extension	          arm_flex_r	          arm_flex_l	        elbow_flex_r	        elbow_flex_l	hamstrings_r/activation	bifemsh_r/activation	glut_max_r/activation	iliopsoas_r/activation	rect_fem_r/activation	  vasti_r/activation	gastroc_r/activation	 soleus_r/activation	tib_ant_r/activation	hamstrings_l/activation	bifemsh_l/activation	glut_max_l/activation	iliopsoas_l/activation	rect_fem_l/activation	  vasti_l/activation	gastroc_l/activation	 soleus_l/activation	tib_ant_l/activation	
          0.52282580	         -6.40943322	          1.81122838	          0.99376106	         31.14860265	        -22.00954467	         -3.54288987	          0.48853032	          6.39626245	        -49.86094778	        -20.36722812	         10.05732845	        -10.20982256	         17.84297449	         17.84298309	         99.28107224	         99.28106946	          0.83202757	          0.15836730	          0.68967195	          0.05504402	          0.05554703	          0.05000279	          0.05909308	          0.05909336	          0.42468979	          0.05000372	          0.77893683	          0.05000094	          0.77585373	          0.98858735	          0.05000054	          0.19382962	          0.09156742	          0.31550535	
          0.52805406	         -6.51704353	          1.82994715	          0.99108928	         30.94128090	        -22.64751539	         -3.38215315	          0.36558497	          7.48012818	        -51.28834945	        -19.67864179	          9.39877343	         -9.98946851	         17.33630125	         17.33630997	         97.92860721	         97.92860363	          0.76533796	          0.14567458	          0.76987962	          0.05063610	          0.05109512	          0.05000119	          0.05435663	          0.05435686	          0.51872732	          0.05000343	          0.81020175	          0.05000069	          0.71366681	          0.99153660	          0.05000047	          0.17829585	          0.08422814	          0.31957529	
          0.53328232	         -6.65210099	          1.84873896	          0.98804040	         30.74512656	        -23.57832030	         -2.59960426	          0.10361045	          8.65678935	        -52.74988039	        -18.98584558	          8.78134868	         -9.70657893	         16.93330177	         16.93331057	         96.71720081	         96.71719641	          0.70399369	          0.13399875	          0.82935697	          0.05000585	          0.05000048	          0.28710134	          0.05000013	          0.05000004	          0.47714981	          0.05000503	          0.83315303	          0.05000066	          0.65646431	          0.99372309	          0.05000044	          0.16400689	          0.07747714	          0.32528591	
          0.53851058	         -6.81408383	          1.86760859	          0.98466557	         30.51103906	        -24.74681434	         -1.46235633	         -0.48439284	          9.91770033	        -54.23064739	        -18.28496264	          8.20172730	         -9.36276278	         16.63263416	         16.63264299	         95.65301775	         95.65301252	          0.64756635	          0.12325857	          0.87346168	          0.05000206	          0.05436115	          0.47135900	          0.23076913	          0.27551757	          0.43890477	          0.05000309	          0.85500659	          0.05000066	          0.60384674	          0.99534187	          0.05000044	          0.15086314	          0.07126727	          0.31936064	
          0.54373883	         -7.00225878	          1.88651847	          0.98107437	         30.19042501	        -26.01831403	          0.03317118	         -0.75020873	         11.25892081	        -55.71301243	        -17.58946047	          7.65725884	         -8.96761024	         16.43483741	         16.43484622	         94.73629479	         94.73628873	          0.59566184	          0.11337930	          0.90616695	          0.05000160	          0.05000482	          0.60799296	          0.21227542	          0.25343541	          0.40372521	          0.06820379	          0.86484482	          0.05000068	          0.55544663	          0.96135021	          0.05000043	          0.13877268	          0.06555516	          0.32858506	
          0.54896709	         -7.21768422	          1.90539810	          0.97740538	         29.75297542	        -27.11679110	          1.87544472	         -0.61877278	         12.68249629	        -57.18297849	        -16.89702704	          7.14226260	         -8.53379252	         16.33985198	         16.33986074	         93.96672160	         93.96671470	          0.54791765	          0.10429189	          0.93041902	          0.05000078	          0.05000100	          0.70931217	          0.20217708	          0.31261411	          0.37136541	          0.07616044	          0.88002954	          0.05000105	          0.51092597	          0.91256961	          0.05000048	          0.12765116	          0.06030093	          0.33146394	
          0.55419535	         -7.46268601	          1.92414339	          0.97379996	         29.25312340	        -28.04800130	          3.68194770	         -0.15982498	         14.19637716	        -58.63271359	        -16.18800042	          6.65481587	         -8.07656087	         16.34884432	         16.34885303	         93.34468591	         93.34467818	          0.50400032	          0.09593285	          0.94840236	          0.05000091	          0.05000144	          0.78444413	          0.27538331	          0.41056177	          0.34159934	          0.07005648	          0.91102475	          0.05000088	          0.46997385	          0.86877292	          0.05000047	          0.11742099	          0.05546792	          0.33377313	
          0.55942361	         -7.73659113	          1.94267001	          0.97038039	         28.75914208	        -28.90133193	          5.32968092	          0.56967249	         15.80208961	        -60.05156306	        -15.44861280	          6.19488111	         -7.61113825	         16.46208637	         16.46209502	         92.87013857	         92.87013001	          0.46360313	          0.08824383	          0.96173411	          0.05000092	          0.05000169	          0.84015726	          0.33038721	          0.49943703	          0.31421912	          0.06444156	          0.93401581	          0.05000090	          0.43230427	          0.79914359	          0.05000046	          0.10801074	          0.05102257	          0.33354849	
          0.56465187	         -8.03822707	          1.96094348	          0.96722925	         28.30796663	        -29.73046253	          6.76198755	          1.51632617	         17.49394864	        -61.42526753	        -14.67529594	          5.76390483	         -7.14514933	         16.67957118	         16.67957978	         92.54298726	         92.54297787	          0.42644392	          0.08117112	          0.96992522	          0.05000102	          0.05000199	          0.88147062	          0.38769063	          0.60455133	          0.28903351	          0.05927667	          0.95106560	          0.05000067	          0.39765415	          0.73509094	          0.05000044	          0.09935469	          0.05000166	          0.33450565	
          0.56988012	         -8.36538266	          1.97898007	          0.96438969	         27.89358611	        -30.52821478	          7.96264970	          2.63691377	         19.25923587	        -62.73775867	        -13.89717214	          5.36462162	         -6.67925818	         17.00145346	         17.00146201	         92.36332483	         92.36331461	          0.39226318	          0.07466534	          0.96823168	          0.05000104	          0.05000226	          0.91210600	          0.44090915	          0.70675887	          0.26586661	          0.05452582	          0.96370668	          0.05000064	          0.36578157	          0.67617169	          0.05000044	          0.09139240	          0.05000190	          0.33569948	
          0.57510838	         -8.70344348	          1.99682801	          0.96189872	         27.47068029	        -31.24840760	          8.94290763	          3.89535686	         21.06741518	        -63.97175047	        -13.15083296	          4.99404675	         -6.22463772	         17.42778052	         17.42778901	         92.33123731	         92.33122626	          0.36082221	          0.06868107	          0.93870753	          0.05000104	          0.05000242	          0.93482327	          0.49217554	          0.78255049	          0.24455660	          0.05015601	          0.96689992	          0.05000061	          0.33646408	          0.62197483	          0.05000045	          0.08406830	          0.05000177	          0.33703696	
          0.58033664	         -9.03480783	          2.01453914	          0.95978412	         26.98902867	        -31.84290314	          9.72641228	          5.25808362	         22.88456372	        -65.11363205	        -12.44551004	          4.64738239	         -5.79608489	         17.95797960	         17.95798803	         92.44675376	         92.44674188	          0.33190149	          0.06317653	          0.86346875	          0.05000094	          0.05000225	          0.95166896	          0.54169150	          0.83875297	          0.22495465	          0.05000190	          0.88940475	          0.05000063	          0.30949730	          0.57212196	          0.05000047	          0.07733127	          0.05000176	          0.33912559	
          0.58556490	         -9.34717771	          2.03215455	          0.95805809	         26.41515078	        -32.28086296	         10.33491870	          6.69300328	         24.68382729	        -66.15233268	        -11.76937110	          4.32176795	         -5.40419041	         18.58953221	         18.58954055	         92.70989877	         92.70988606	          0.30529927	          0.05811335	          0.79425926	          0.05000080	          0.05000200	          0.96416064	          0.59028678	          0.88042924	          0.20692385	          0.05000360	          0.81811766	          0.05000071	          0.28469495	          0.52626497	          0.05000051	          0.07113429	          0.05000168	          0.34166482	
